<?xml version="1.0" encoding="UTF-8"?>
<!DOCTYPE svg PUBLIC "-//W3C//DTD SVG 1.1//EN" "http://www.w3.org/Graphics/SVG/1.1/DTD/svg11.dtd">
<svg version="1.2" width="108.47mm" height="44.18mm" viewBox="5957 6804 10847 4418" preserveAspectRatio="xMidYMid" fill-rule="evenodd" stroke-width="28.222" stroke-linejoin="round" xmlns="http://www.w3.org/2000/svg" xmlns:ooo="http://xml.openoffice.org/svg/export" xmlns:xlink="http://www.w3.org/1999/xlink" xmlns:presentation="http://sun.com/xmlns/staroffice/presentation" xmlns:smil="http://www.w3.org/2001/SMIL20/" xmlns:anim="urn:oasis:names:tc:opendocument:xmlns:animation:1.0" xml:space="preserve">
 <defs class="EmbeddedBulletChars">
  <g id="bullet-char-template-57356" transform="scale(0.00048828125,-0.00048828125)">
   <path d="M 580,1141 L 1163,571 580,0 -4,571 580,1141 Z"/>
  </g>
  <g id="bullet-char-template-57354" transform="scale(0.00048828125,-0.00048828125)">
   <path d="M 8,1128 L 1137,1128 1137,0 8,0 8,1128 Z"/>
  </g>
  <g id="bullet-char-template-10146" transform="scale(0.00048828125,-0.00048828125)">
   <path d="M 174,0 L 602,739 174,1481 1456,739 174,0 Z M 1358,739 L 309,1346 659,739 1358,739 Z"/>
  </g>
  <g id="bullet-char-template-10132" transform="scale(0.00048828125,-0.00048828125)">
   <path d="M 2015,739 L 1276,0 717,0 1260,543 174,543 174,936 1260,936 717,1481 1274,1481 2015,739 Z"/>
  </g>
  <g id="bullet-char-template-10007" transform="scale(0.00048828125,-0.00048828125)">
   <path d="M 0,-2 C -7,14 -16,27 -25,37 L 356,567 C 262,823 215,952 215,954 215,979 228,992 255,992 264,992 276,990 289,987 310,991 331,999 354,1012 L 381,999 492,748 772,1049 836,1024 860,1049 C 881,1039 901,1025 922,1006 886,937 835,863 770,784 769,783 710,716 594,584 L 774,223 C 774,196 753,168 711,139 L 727,119 C 717,90 699,76 672,76 641,76 570,178 457,381 L 164,-76 C 142,-110 111,-127 72,-127 30,-127 9,-110 8,-76 1,-67 -2,-52 -2,-32 -2,-23 -1,-13 0,-2 Z"/>
  </g>
  <g id="bullet-char-template-10004" transform="scale(0.00048828125,-0.00048828125)">
   <path d="M 285,-33 C 182,-33 111,30 74,156 52,228 41,333 41,471 41,549 55,616 82,672 116,743 169,778 240,778 293,778 328,747 346,684 L 369,508 C 377,444 397,411 428,410 L 1163,1116 C 1174,1127 1196,1133 1229,1133 1271,1133 1292,1118 1292,1087 L 1292,965 C 1292,929 1282,901 1262,881 L 442,47 C 390,-6 338,-33 285,-33 Z"/>
  </g>
  <g id="bullet-char-template-9679" transform="scale(0.00048828125,-0.00048828125)">
   <path d="M 813,0 C 632,0 489,54 383,161 276,268 223,411 223,592 223,773 276,916 383,1023 489,1130 632,1184 813,1184 992,1184 1136,1130 1245,1023 1353,916 1407,772 1407,592 1407,412 1353,268 1245,161 1136,54 992,0 813,0 Z"/>
  </g>
  <g id="bullet-char-template-8226" transform="scale(0.00048828125,-0.00048828125)">
   <path d="M 346,457 C 273,457 209,483 155,535 101,586 74,649 74,723 74,796 101,859 155,911 209,963 273,989 346,989 419,989 480,963 531,910 582,859 608,796 608,723 608,648 583,586 532,535 482,483 420,457 346,457 Z"/>
  </g>
  <g id="bullet-char-template-8211" transform="scale(0.00048828125,-0.00048828125)">
   <path d="M -4,459 L 1135,459 1135,606 -4,606 -4,459 Z"/>
  </g>
  <g id="bullet-char-template-61548" transform="scale(0.00048828125,-0.00048828125)">
   <path d="M 173,740 C 173,903 231,1043 346,1159 462,1274 601,1332 765,1332 928,1332 1067,1274 1183,1159 1299,1043 1357,903 1357,740 1357,577 1299,437 1183,322 1067,206 928,148 765,148 601,148 462,206 346,322 231,437 173,577 173,740 Z"/>
  </g>
 </defs>
 <g class="Page">
  <g class="Group">
   <g class="com.sun.star.drawing.ClosedBezierShape">
    <g id="id3">
     <rect class="BoundingBox" stroke="none" fill="none" x="5957" y="7247" width="8936" height="2071"/>
     <path fill="rgb(0,0,0)" stroke="none" d="M 7047,9264 L 7047,9317 C 7030,9317 7011,9316 6990,9313 6970,9310 6948,9306 6924,9301 6878,9290 6826,9275 6769,9256 6658,9217 6533,9162 6415,9094 6295,9025 6183,8943 6100,8853 6057,8805 6022,8756 5998,8705 5985,8678 5975,8651 5968,8623 5961,8595 5957,8567 5957,8538 5957,8497 5965,8455 5981,8413 5997,8372 6020,8331 6054,8290 6085,8252 6126,8213 6177,8174 6226,8136 6284,8099 6354,8062 6422,8025 6501,7989 6591,7954 6680,7918 6781,7884 6894,7850 7119,7782 7393,7717 7724,7657 8053,7597 8440,7541 8891,7491 9341,7442 9856,7398 10443,7362 11030,7326 11689,7297 12428,7277 13167,7258 13985,7247 14892,7247 L 14892,7300 14892,7353 C 13986,7353 13169,7364 12431,7383 11693,7403 11035,7432 10450,7468 9864,7504 9351,7547 8902,7597 8454,7646 8070,7702 7743,7761 7416,7821 7146,7884 6925,7951 6815,7984 6717,8018 6630,8052 6544,8086 6469,8120 6404,8155 6340,8189 6286,8223 6241,8258 6198,8291 6163,8324 6136,8357 6110,8389 6092,8420 6080,8451 6069,8480 6063,8509 6063,8538 6063,8558 6066,8578 6071,8598 6076,8618 6084,8639 6093,8659 6113,8701 6143,8742 6179,8781 6254,8864 6358,8939 6468,9002 6580,9067 6699,9119 6804,9156 6856,9174 6905,9188 6947,9197 6968,9202 6987,9205 7004,9208 7020,9210 7035,9211 7047,9211 L 7047,9264 Z"/>
    </g>
   </g>
   <g class="com.sun.star.drawing.ClosedBezierShape">
    <g id="id4">
     <rect class="BoundingBox" stroke="none" fill="none" x="7035" y="8431" width="9731" height="2791"/>
     <path fill="rgb(0,0,0)" stroke="none" d="M 16068,9213 L 16068,9175 C 16068,9051 16061,8971 16048,8936 16034,8901 16006,8884 15963,8884 15926,8884 15898,8898 15879,8926 15860,8954 15850,9037 15850,9175 L 15850,9213 15160,9213 C 15163,9136 15168,9074 15173,9026 15186,8914 15225,8811 15292,8719 15359,8626 15449,8555 15562,8505 15676,8456 15808,8431 15959,8431 16103,8431 16231,8454 16345,8501 16459,8548 16551,8618 16621,8712 16690,8806 16731,8908 16745,9018 16750,9067 16755,9132 16758,9213 L 16068,9213 Z M 13809,9213 L 13809,8488 14988,8488 14988,9024 14505,9024 14505,9213 13809,9213 Z M 12867,9213 L 12867,9099 C 12867,9006 12859,8947 12842,8922 12826,8897 12798,8884 12760,8884 12718,8884 12686,8901 12665,8935 12643,8970 12632,9021 12632,9091 12632,9138 12636,9178 12642,9213 L 11981,9213 C 11981,9203 11981,9193 11981,9184 11981,8978 12007,8829 12060,8734 12112,8639 12197,8565 12313,8511 12430,8458 12571,8431 12737,8431 12917,8431 13071,8460 13199,8519 13326,8577 13410,8651 13452,8739 13493,8828 13514,8979 13514,9192 L 13514,9213 12867,9213 Z M 11096,9213 L 11096,9099 C 11096,9006 11088,8947 11071,8922 11055,8897 11027,8884 10989,8884 10947,8884 10915,8901 10894,8935 10872,8970 10861,9021 10861,9091 10861,9138 10865,9178 10871,9213 L 10210,9213 C 10210,9203 10210,9193 10210,9184 10210,8978 10236,8829 10289,8734 10341,8639 10426,8565 10542,8511 10659,8458 10800,8431 10966,8431 11146,8431 11300,8460 11428,8519 11555,8577 11639,8651 11681,8739 11722,8828 11743,8979 11743,9192 L 11743,9213 11096,9213 Z M 9294,9213 L 9294,9175 C 9294,9051 9287,8971 9274,8936 9260,8901 9232,8884 9189,8884 9152,8884 9124,8898 9105,8926 9086,8954 9076,9037 9076,9175 L 9076,9213 8386,9213 C 8389,9136 8394,9074 8399,9026 8412,8914 8451,8811 8518,8719 8585,8626 8675,8555 8788,8505 8902,8456 9034,8431 9185,8431 9329,8431 9457,8454 9571,8501 9685,8548 9777,8618 9847,8712 9916,8806 9957,8908 9971,9018 9976,9067 9981,9132 9984,9213 L 9294,9213 Z M 7047,9213 L 7047,9315 7732,9315 7732,9532 8162,9532 8162,10041 7732,10041 7732,11165 7036,11165 7036,8488 8215,8488 8215,9024 7732,9024 7732,9213 7047,9213 Z M 9076,9315 L 9076,10426 C 9076,10581 9082,10677 9095,10713 9108,10750 9137,10768 9184,10768 9231,10768 9261,10747 9274,10705 9288,10663 9294,10563 9294,10406 L 9294,9315 9987,9315 C 9989,9397 9990,9491 9990,9597 L 9990,10055 C 9990,10324 9984,10515 9971,10626 9959,10738 9919,10841 9852,10933 9786,11026 9696,11097 9582,11147 9468,11196 9336,11221 9185,11221 9042,11221 8913,11198 8799,11151 8685,11104 8593,11034 8524,10940 8454,10846 8413,10744 8400,10634 8387,10524 8380,10331 8380,10055 L 8380,9597 C 8380,9491 8381,9397 8383,9315 L 9076,9315 Z M 10912,9315 C 10943,9355 11004,9403 11095,9456 11404,9640 11599,9792 11680,9909 11760,10027 11801,10218 11801,10480 11801,10671 11778,10811 11734,10902 11689,10992 11603,11068 11475,11129 11347,11190 11198,11221 11028,11221 10842,11221 10683,11186 10551,11115 10420,11045 10333,10955 10293,10846 10252,10736 10232,10582 10232,10381 L 10232,10206 10878,10206 10878,10531 C 10878,10632 10887,10696 10905,10725 10923,10754 10956,10768 11002,10768 11048,10768 11083,10750 11105,10713 11128,10677 11139,10623 11139,10551 11139,10394 11118,10291 11075,10242 11031,10193 10922,10112 10749,9999 10576,9884 10461,9801 10405,9749 10349,9697 10302,9626 10265,9534 10241,9473 10224,9400 10216,9315 L 10912,9315 Z M 12683,9315 C 12714,9355 12775,9403 12866,9456 13175,9640 13370,9792 13451,9909 13531,10027 13572,10218 13572,10480 13572,10671 13549,10811 13505,10902 13460,10992 13374,11068 13246,11129 13118,11190 12969,11221 12799,11221 12613,11221 12454,11186 12322,11115 12191,11045 12104,10955 12064,10846 12023,10736 12003,10582 12003,10381 L 12003,10206 12649,10206 12649,10531 C 12649,10632 12658,10696 12676,10725 12694,10754 12727,10768 12773,10768 12819,10768 12854,10750 12876,10713 12899,10677 12910,10623 12910,10551 12910,10394 12889,10291 12846,10242 12802,10193 12693,10112 12520,9999 12347,9884 12232,9801 12176,9749 12120,9697 12073,9626 12036,9534 12012,9473 11995,9400 11987,9315 L 12683,9315 Z M 14505,9315 L 14505,9532 14935,9532 14935,10041 14505,10041 14505,11165 13809,11165 13809,9315 14505,9315 Z M 15850,9315 L 15850,10426 C 15850,10581 15856,10677 15869,10713 15882,10750 15911,10768 15958,10768 16005,10768 16035,10747 16048,10705 16062,10663 16068,10563 16068,10406 L 16068,9315 16761,9315 C 16763,9397 16764,9491 16764,9597 L 16764,10055 C 16764,10324 16758,10515 16745,10626 16733,10738 16693,10841 16626,10933 16560,11026 16470,11097 16356,11147 16242,11196 16110,11221 15959,11221 15816,11221 15687,11198 15573,11151 15459,11104 15367,11034 15298,10940 15228,10846 15187,10744 15174,10634 15161,10524 15154,10331 15154,10055 L 15154,9597 C 15154,9491 15155,9397 15157,9315 L 15850,9315 Z"/>
    </g>
   </g>
   <g class="Group">
    <g class="com.sun.star.drawing.PolyPolygonShape">
     <g id="id5">
      <rect class="BoundingBox" stroke="none" fill="none" x="15020" y="7137" width="146" height="361"/>
      <path fill="rgb(255,255,255)" stroke="none" d="M 15021,7138 L 15021,7497 15165,7457 15165,7176 15021,7138 Z"/>
     </g>
    </g>
    <g class="Group">
     <g class="com.sun.star.drawing.PolyPolygonShape">
      <g id="id6">
       <rect class="BoundingBox" stroke="none" fill="none" x="15020" y="7137" width="146" height="361"/>
       <path fill="rgb(255,255,255)" stroke="none" d="M 15021,7138 L 15021,7497 15165,7457 15165,7176 15021,7138 Z"/>
      </g>
     </g>
     <g class="com.sun.star.drawing.ClosedBezierShape">
      <g id="id7">
       <rect class="BoundingBox" stroke="none" fill="none" x="14967" y="7084" width="252" height="467"/>
       <path fill="rgb(0,0,0)" stroke="none" d="M 14975,7111 C 14979,7103 14986,7097 14994,7092 15002,7087 15011,7085 15021,7085 15025,7085 15030,7086 15034,7087 L 15178,7125 C 15183,7126 15187,7128 15191,7130 15199,7135 15206,7142 15211,7150 15215,7158 15218,7167 15218,7176 L 15218,7457 C 15218,7467 15215,7476 15211,7484 15206,7492 15199,7499 15191,7503 15187,7506 15183,7507 15179,7508 L 15035,7548 C 15030,7549 15025,7550 15021,7550 15011,7550 15002,7547 14994,7542 14986,7538 14979,7531 14975,7523 14970,7515 14968,7506 14968,7497 L 14968,7138 C 14968,7129 14970,7120 14975,7111 Z M 15074,7427 L 15112,7417 15112,7217 15074,7207 15074,7427 Z"/>
      </g>
     </g>
    </g>
    <g class="com.sun.star.drawing.PolyPolygonShape">
     <g id="id8">
      <rect class="BoundingBox" stroke="none" fill="none" x="14981" y="6857" width="723" height="330"/>
      <path fill="rgb(255,255,255)" stroke="none" d="M 15494,6881 L 15702,7185 15190,7161 14981,6858 15494,6881 Z"/>
     </g>
    </g>
    <g class="Group">
     <g class="com.sun.star.drawing.PolyPolygonShape">
      <g id="id9">
       <rect class="BoundingBox" stroke="none" fill="none" x="14981" y="6857" width="723" height="330"/>
       <path fill="rgb(255,255,255)" stroke="none" d="M 15494,6881 L 15702,7185 15190,7161 14981,6858 15494,6881 Z"/>
      </g>
     </g>
     <g class="com.sun.star.drawing.ClosedBezierShape">
      <g id="id10">
       <rect class="BoundingBox" stroke="none" fill="none" x="14928" y="6804" width="829" height="436"/>
       <path fill="rgb(0,0,0)" stroke="none" d="M 15520,6836 C 15527,6840 15533,6845 15537,6851 L 15746,7155 C 15747,7156 15748,7157 15748,7159 15753,7167 15755,7176 15755,7185 15755,7194 15753,7204 15748,7212 15744,7220 15737,7226 15729,7231 15721,7236 15712,7238 15702,7238 15702,7238 15701,7238 15700,7238 L 15187,7214 C 15179,7213 15170,7211 15163,7207 15156,7203 15150,7197 15146,7191 L 14937,6888 C 14937,6887 14936,6886 14935,6884 14931,6876 14928,6867 14928,6858 14928,6849 14931,6840 14935,6831 14940,6823 14947,6817 14955,6812 14963,6807 14972,6805 14981,6805 14982,6805 14983,6805 14984,6805 L 15496,6829 C 15504,6829 15513,6831 15520,6836 Z M 15465,6933 L 15085,6916 15218,7109 15598,7127 15465,6933 Z"/>
      </g>
     </g>
    </g>
    <g class="com.sun.star.drawing.PolyPolygonShape">
     <g id="id11">
      <rect class="BoundingBox" stroke="none" fill="none" x="14978" y="7452" width="723" height="331"/>
      <path fill="rgb(255,255,255)" stroke="none" d="M 15491,7756 L 15700,7453 15187,7478 14979,7781 15491,7756 Z"/>
     </g>
    </g>
    <g class="Group">
     <g class="com.sun.star.drawing.PolyPolygonShape">
      <g id="id12">
       <rect class="BoundingBox" stroke="none" fill="none" x="14978" y="7452" width="723" height="331"/>
       <path fill="rgb(255,255,255)" stroke="none" d="M 15491,7756 L 15700,7453 15187,7478 14979,7781 15491,7756 Z"/>
      </g>
     </g>
     <g class="com.sun.star.drawing.ClosedBezierShape">
      <g id="id13">
       <rect class="BoundingBox" stroke="none" fill="none" x="14925" y="7399" width="829" height="437"/>
       <path fill="rgb(0,0,0)" stroke="none" d="M 15518,7802 C 15510,7806 15502,7809 15494,7809 L 14982,7834 C 14981,7834 14980,7834 14979,7834 14970,7834 14961,7832 14952,7827 14944,7822 14938,7816 14933,7808 14928,7799 14926,7790 14926,7781 14926,7772 14928,7763 14933,7755 14934,7753 14935,7752 14935,7751 L 15144,7448 C 15148,7442 15154,7436 15161,7432 15168,7428 15176,7426 15185,7425 L 15697,7400 C 15698,7400 15699,7400 15700,7400 15709,7400 15718,7402 15726,7407 15735,7411 15741,7418 15746,7426 15751,7434 15753,7443 15753,7453 15753,7462 15751,7471 15746,7479 15745,7480 15744,7481 15744,7483 L 15535,7786 C 15530,7793 15524,7798 15518,7802 Z M 15596,7511 L 15216,7530 15083,7723 15462,7705 15596,7511 Z"/>
      </g>
     </g>
    </g>
    <g class="com.sun.star.drawing.PolyPolygonShape">
     <g id="id14">
      <rect class="BoundingBox" stroke="none" fill="none" x="15103" y="6995" width="1435" height="646"/>
      <path fill="rgb(255,255,255)" stroke="none" d="M 15820,7640 L 15726,7637 15634,7629 15590,7623 15546,7615 15503,7607 15462,7597 15422,7586 15384,7573 15348,7560 15313,7546 15281,7530 15252,7514 15224,7497 15199,7479 15177,7460 15158,7441 15141,7421 15134,7411 15128,7401 15122,7391 15117,7381 15113,7370 15110,7360 15107,7349 15105,7339 15104,7328 15104,7318 15104,7307 15105,7297 15107,7286 15110,7276 15113,7265 15117,7255 15122,7244 15128,7234 15134,7224 15141,7214 15158,7195 15177,7175 15199,7157 15224,7139 15252,7122 15281,7105 15313,7090 15348,7076 15384,7062 15422,7050 15462,7039 15503,7029 15546,7020 15590,7013 15634,7007 15726,6998 15820,6995 15913,6998 16005,7006 16050,7012 16094,7020 16136,7029 16178,7039 16218,7050 16256,7062 16292,7075 16326,7090 16358,7105 16388,7121 16415,7139 16440,7157 16462,7175 16482,7195 16498,7214 16505,7224 16512,7234 16517,7244 16522,7255 16526,7265 16530,7276 16533,7286 16535,7297 16536,7307 16536,7318 16536,7328 16535,7339 16533,7349 16530,7360 16526,7370 16522,7381 16517,7391 16512,7401 16505,7411 16498,7421 16482,7441 16462,7460 16440,7479 16415,7497 16388,7514 16358,7530 16326,7546 16292,7560 16256,7573 16218,7586 16178,7597 16136,7607 16094,7615 16050,7623 16005,7629 15913,7637 15820,7640 Z"/>
     </g>
    </g>
    <g class="Group">
     <g class="com.sun.star.drawing.PolyPolygonShape">
      <g id="id15">
       <rect class="BoundingBox" stroke="none" fill="none" x="15103" y="6995" width="1435" height="646"/>
       <path fill="rgb(255,255,255)" stroke="none" d="M 15820,7640 L 15726,7637 15634,7629 15590,7623 15546,7615 15503,7607 15462,7597 15422,7586 15384,7573 15348,7560 15313,7546 15281,7530 15252,7514 15224,7497 15199,7479 15177,7460 15158,7441 15141,7421 15134,7411 15128,7401 15122,7391 15117,7381 15113,7370 15110,7360 15107,7349 15105,7339 15104,7328 15104,7318 15104,7307 15105,7297 15107,7286 15110,7276 15113,7265 15117,7255 15122,7244 15128,7234 15134,7224 15141,7214 15158,7195 15177,7175 15199,7157 15224,7139 15252,7122 15281,7105 15313,7090 15348,7076 15384,7062 15422,7050 15462,7039 15503,7029 15546,7020 15590,7013 15634,7007 15726,6998 15820,6995 15913,6998 16005,7006 16050,7012 16094,7020 16136,7029 16178,7039 16218,7050 16256,7062 16292,7075 16326,7090 16358,7105 16388,7121 16415,7139 16440,7157 16462,7175 16482,7195 16498,7214 16505,7224 16512,7234 16517,7244 16522,7255 16526,7265 16530,7276 16533,7286 16535,7297 16536,7307 16536,7318 16536,7328 16535,7339 16533,7349 16530,7360 16526,7370 16522,7381 16517,7391 16512,7401 16505,7411 16498,7421 16482,7441 16462,7460 16440,7479 16415,7497 16388,7514 16358,7530 16326,7546 16292,7560 16256,7573 16218,7586 16178,7597 16136,7607 16094,7615 16050,7623 16005,7629 15913,7637 15820,7640 Z"/>
      </g>
     </g>
     <g class="com.sun.star.drawing.ClosedBezierShape">
      <g id="id16">
       <rect class="BoundingBox" stroke="none" fill="none" x="15050" y="6942" width="1541" height="752"/>
       <path fill="rgb(0,0,0)" stroke="none" d="M 15820,7693 C 15819,7693 15819,7693 15818,7693 L 15725,7690 C 15723,7690 15722,7690 15721,7690 L 15630,7682 C 15629,7682 15628,7682 15627,7682 L 15583,7675 C 15582,7675 15581,7675 15581,7675 L 15537,7668 C 15537,7668 15536,7668 15536,7667 L 15493,7659 C 15492,7659 15491,7659 15491,7658 L 15449,7648 C 15449,7648 15448,7648 15448,7648 L 15408,7637 C 15407,7637 15406,7636 15405,7636 L 15367,7624 C 15367,7623 15366,7623 15366,7623 L 15329,7610 C 15329,7610 15328,7609 15327,7609 L 15293,7595 C 15292,7594 15291,7594 15290,7593 L 15258,7578 C 15258,7578 15257,7577 15256,7577 L 15226,7561 C 15226,7560 15225,7560 15225,7560 15224,7560 15224,7559 15223,7559 L 15196,7542 C 15195,7541 15194,7540 15193,7540 L 15168,7522 C 15167,7521 15166,7520 15165,7519 L 15143,7501 C 15142,7500 15141,7499 15140,7498 L 15121,7479 C 15120,7477 15118,7476 15117,7475 L 15101,7455 C 15100,7454 15099,7453 15098,7452 L 15091,7442 C 15091,7441 15090,7440 15090,7440 L 15083,7430 C 15083,7429 15082,7428 15082,7428 15082,7427 15082,7427 15081,7427 L 15076,7416 C 15075,7416 15075,7415 15075,7414 L 15070,7404 C 15069,7403 15068,7401 15068,7400 L 15064,7390 C 15064,7389 15063,7388 15063,7387 L 15059,7377 C 15059,7375 15059,7374 15058,7373 L 15056,7362 C 15055,7361 15055,7360 15055,7359 L 15053,7349 C 15053,7347 15053,7346 15052,7345 L 15051,7334 C 15051,7333 15051,7331 15051,7330 L 15051,7319 C 15051,7319 15051,7318 15051,7318 15051,7317 15051,7317 15051,7316 L 15051,7305 C 15051,7304 15051,7303 15051,7301 L 15052,7291 C 15053,7289 15053,7288 15053,7287 L 15055,7276 C 15055,7275 15055,7274 15056,7273 L 15058,7263 C 15059,7261 15059,7260 15059,7259 L 15063,7248 C 15063,7247 15064,7247 15064,7246 L 15068,7235 C 15068,7234 15069,7233 15070,7232 L 15075,7221 C 15075,7221 15075,7220 15076,7219 L 15081,7209 C 15082,7208 15082,7208 15082,7208 15082,7207 15083,7206 15083,7206 L 15090,7196 C 15090,7195 15091,7194 15091,7193 L 15098,7183 C 15099,7182 15100,7181 15101,7180 L 15117,7160 C 15118,7159 15119,7158 15120,7157 L 15140,7138 C 15141,7137 15142,7136 15143,7135 L 15165,7116 C 15166,7115 15167,7115 15168,7114 L 15193,7096 C 15194,7095 15195,7094 15196,7094 L 15224,7077 C 15224,7076 15225,7076 15225,7076 15225,7076 15226,7075 15226,7075 L 15256,7059 C 15257,7058 15258,7058 15259,7057 L 15290,7042 C 15291,7042 15292,7041 15293,7041 L 15327,7027 C 15328,7026 15328,7026 15329,7026 L 15365,7013 C 15366,7012 15367,7012 15367,7012 L 15406,7000 C 15406,6999 15407,6999 15407,6999 L 15447,6988 C 15448,6988 15449,6987 15449,6987 L 15491,6977 C 15491,6977 15492,6977 15493,6977 L 15536,6968 C 15536,6968 15537,6968 15537,6968 L 15581,6960 C 15581,6960 15582,6960 15583,6960 L 15627,6954 C 15628,6954 15629,6954 15630,6954 L 15721,6945 C 15722,6945 15723,6945 15725,6945 L 15818,6942 C 15819,6942 15819,6942 15820,6942 15820,6942 15821,6942 15821,6942 L 15915,6945 C 15916,6945 15917,6945 15918,6945 L 16010,6954 C 16011,6954 16011,6954 16012,6954 L 16057,6960 C 16058,6960 16058,6960 16059,6960 L 16103,6968 C 16103,6968 16104,6968 16104,6968 L 16147,6977 C 16148,6977 16148,6977 16149,6977 L 16190,6987 C 16191,6987 16191,6988 16192,6988 L 16232,6999 C 16233,6999 16233,6999 16234,6999 L 16272,7012 C 16273,7012 16274,7012 16274,7012 L 16310,7026 C 16311,7026 16312,7026 16313,7027 L 16347,7041 C 16348,7041 16349,7042 16349,7042 L 16381,7057 C 16382,7058 16383,7058 16384,7059 L 16413,7075 C 16414,7075 16414,7075 16415,7076 16415,7076 16416,7076 16416,7077 L 16444,7094 C 16445,7094 16446,7095 16446,7096 L 16471,7114 C 16472,7115 16473,7115 16474,7116 L 16496,7135 C 16497,7136 16499,7137 16500,7138 L 16519,7157 C 16520,7158 16521,7159 16522,7160 L 16539,7180 C 16540,7181 16540,7182 16541,7183 L 16548,7193 C 16549,7194 16549,7195 16550,7196 L 16556,7206 C 16557,7206 16557,7207 16558,7208 16558,7208 16558,7208 16558,7209 L 16564,7219 C 16564,7220 16565,7221 16565,7221 L 16570,7232 C 16571,7233 16571,7234 16572,7235 L 16576,7246 C 16576,7247 16576,7247 16577,7248 L 16580,7259 C 16581,7260 16581,7261 16581,7263 L 16584,7273 C 16584,7274 16584,7275 16585,7276 L 16587,7287 C 16587,7288 16587,7289 16587,7291 L 16588,7301 C 16589,7303 16589,7304 16589,7305 L 16589,7316 C 16589,7317 16589,7317 16589,7318 16589,7318 16589,7319 16589,7319 L 16589,7330 C 16589,7331 16589,7333 16588,7334 L 16587,7345 C 16587,7346 16587,7347 16587,7349 L 16585,7359 C 16584,7360 16584,7361 16584,7362 L 16581,7373 C 16581,7374 16581,7375 16580,7377 L 16577,7387 C 16576,7388 16576,7389 16576,7390 L 16572,7400 C 16571,7401 16571,7403 16570,7404 L 16565,7414 C 16565,7415 16564,7416 16564,7416 L 16558,7427 C 16558,7427 16558,7427 16558,7428 16557,7428 16557,7429 16556,7430 L 16550,7440 C 16550,7440 16549,7441 16549,7442 L 16541,7452 C 16541,7453 16540,7454 16539,7455 L 16522,7475 C 16521,7476 16520,7477 16519,7479 L 16500,7498 C 16499,7499 16498,7500 16496,7501 L 16474,7519 C 16473,7520 16472,7521 16471,7522 L 16446,7540 C 16446,7540 16445,7541 16444,7542 L 16416,7559 C 16416,7559 16415,7560 16415,7560 16414,7560 16414,7560 16413,7561 L 16384,7577 C 16383,7577 16382,7578 16381,7578 L 16349,7593 C 16349,7594 16348,7594 16347,7595 L 16313,7609 C 16312,7609 16311,7610 16310,7610 L 16274,7623 C 16274,7623 16273,7623 16272,7624 L 16234,7636 C 16233,7636 16233,7637 16232,7637 L 16192,7648 C 16191,7648 16191,7648 16190,7648 L 16149,7658 C 16148,7659 16148,7659 16147,7659 L 16104,7667 C 16104,7668 16103,7668 16103,7668 L 16059,7675 C 16058,7675 16058,7675 16057,7675 L 16012,7682 C 16011,7682 16011,7682 16010,7682 L 15918,7690 C 15917,7690 15916,7690 15915,7690 L 15821,7693 C 15821,7693 15820,7693 15820,7693 Z M 16470,7367 L 16474,7359 16477,7352 16479,7345 16481,7338 16482,7331 16483,7325 16483,7318 16483,7311 16482,7304 16481,7297 16479,7291 16477,7283 16474,7276 16470,7269 16466,7261 16461,7254 16456,7247 16443,7230 16426,7214 16408,7199 16386,7183 16361,7167 16334,7152 16305,7138 16273,7125 16239,7112 16203,7101 16164,7090 16125,7080 16084,7072 16042,7065 15999,7059 15910,7051 15820,7048 15729,7051 15640,7059 15598,7065 15556,7072 15515,7080 15475,7090 15437,7101 15401,7112 15367,7125 15335,7138 15306,7152 15278,7167 15254,7183 15232,7199 15213,7214 15197,7230 15183,7247 15178,7254 15173,7261 15169,7269 15166,7276 15163,7283 15161,7291 15159,7297 15157,7304 15157,7311 15157,7318 15157,7325 15157,7331 15159,7338 15161,7345 15163,7352 15166,7359 15169,7367 15173,7374 15178,7382 15183,7389 15197,7405 15213,7421 15232,7437 15254,7453 15278,7468 15306,7483 15335,7497 15367,7511 15401,7523 15437,7535 15475,7545 15515,7555 15556,7563 15598,7571 15640,7576 15729,7584 15820,7587 15910,7584 15999,7576 16042,7571 16084,7563 16125,7555 16164,7545 16203,7535 16239,7523 16273,7511 16305,7497 16334,7483 16361,7468 16386,7453 16407,7437 16426,7421 16443,7405 16456,7389 16461,7382 16466,7374 16470,7367 Z"/>
      </g>
     </g>
    </g>
    <g class="com.sun.star.drawing.PolyPolygonShape">
     <g id="id17">
      <rect class="BoundingBox" stroke="none" fill="none" x="16352" y="7102" width="399" height="433"/>
      <path fill="rgb(255,255,255)" stroke="none" d="M 16750,7318 L 16353,7533 16353,7102 16750,7318 Z"/>
     </g>
    </g>
    <g class="Group">
     <g class="com.sun.star.drawing.PolyPolygonShape">
      <g id="id18">
       <rect class="BoundingBox" stroke="none" fill="none" x="16352" y="7102" width="399" height="433"/>
       <path fill="rgb(255,255,255)" stroke="none" d="M 16750,7318 L 16353,7533 16353,7102 16750,7318 Z"/>
      </g>
     </g>
     <g class="com.sun.star.drawing.ClosedBezierShape">
      <g id="id19">
       <rect class="BoundingBox" stroke="none" fill="none" x="16299" y="7049" width="505" height="539"/>
       <path fill="rgb(0,0,0)" stroke="none" d="M 16776,7272 C 16784,7277 16791,7283 16796,7291 16800,7299 16803,7308 16803,7318 16803,7327 16800,7336 16796,7344 16791,7352 16784,7359 16776,7364 16776,7364 16775,7364 16775,7364 L 16378,7580 C 16370,7584 16361,7586 16353,7586 16343,7586 16334,7584 16326,7579 16318,7574 16311,7568 16307,7560 16302,7552 16300,7542 16300,7533 L 16300,7102 C 16300,7093 16302,7084 16307,7076 16311,7068 16318,7061 16326,7056 16334,7052 16343,7049 16353,7049 16361,7049 16370,7051 16378,7056 L 16775,7271 C 16775,7271 16776,7272 16776,7272 Z M 16639,7318 L 16406,7191 16406,7444 16639,7318 Z"/>
      </g>
     </g>
    </g>
   </g>
  </g>
 </g>
</svg>